<svg xmlns="http://www.w3.org/2000/svg" xmlns:xlink="http://www.w3.org/1999/xlink" width="500" zoomAndPan="magnify" viewBox="0 0 375 374.999991" height="500" preserveAspectRatio="xMidYMid meet" version="1.0"><path fill="#ed5eaf" d="M 187.371094 0.128906 C 83.90625 0.128906 0 84.035156 0 187.5 C 0 290.964844 83.90625 374.871094 187.371094 374.871094 C 290.835938 374.871094 374.742188 290.964844 374.742188 187.5 C 375 84.035156 291.351562 0.128906 187.371094 0.128906 Z M 187.371094 0.128906 " fill-opacity="1" fill-rule="nonzero"/><path fill="#ffffff" d="M 287.492188 107.457031 L 286.203125 106.425781 C 281.828125 102.824219 276.425781 101.277344 271.277344 101.792969 C 265.871094 102.308594 260.980469 104.625 257.378906 109 L 211.566406 163.050781 L 184.28125 195.734375 L 164.464844 219.671875 L 150.824219 205.257812 L 143.101562 197.28125 L 116.335938 169.226562 C 112.472656 165.109375 107.328125 163.050781 101.921875 162.792969 C 96.773438 162.535156 91.371094 164.59375 87.507812 168.453125 L 86.222656 169.742188 C 77.984375 177.460938 77.726562 190.589844 85.449219 198.824219 L 111.960938 226.621094 L 119.679688 234.859375 L 150.308594 267.03125 C 153.914062 270.632812 158.546875 272.949219 163.179688 273.207031 C 163.433594 273.207031 163.433594 273.207031 163.691406 273.207031 C 163.949219 273.207031 164.207031 273.207031 164.722656 273.207031 C 164.722656 273.207031 164.722656 273.207031 164.980469 273.207031 C 165.75 273.207031 166.523438 273.207031 167.554688 273.207031 C 172.957031 272.691406 177.847656 270.375 181.453125 266 L 227.007812 211.949219 L 244.507812 190.589844 L 290.066406 136.539062 C 297.273438 127.789062 296.242188 114.917969 287.492188 107.457031 Z M 287.492188 107.457031 " fill-opacity="1" fill-rule="nonzero"/></svg>